<?xml version="1.0" encoding="iso-8859-1"?>
<!-- Uploaded to: SVG Repo, www.svgrepo.com, Generator: SVG Repo Mixer Tools -->
<svg fill="#000000" version="1.1" id="Layer_1" xmlns="http://www.w3.org/2000/svg" xmlns:xlink="http://www.w3.org/1999/xlink" 
	 viewBox="0 0 496 496" xml:space="preserve">
<g>
	<g>
		<g>
			<path d="M168,248c-22.056,0-40,17.944-40,40c0,22.056,17.944,40,40,40c22.056,0,40-17.944,40-40C208,265.944,190.056,248,168,248
				z M168,312c-13.232,0-24-10.768-24-24s10.768-24,24-24s24,10.768,24,24S181.232,312,168,312z"/>
			<rect x="160" y="280" width="16" height="16"/>
			<path d="M496,368v-80h-22.888c-1.408-4.024-3.024-7.944-4.824-11.72l16.16-16.16l-56.568-56.568l-16.16,16.16
				c-3.784-1.8-7.696-3.408-11.72-4.824V192h-64V0H0v464h16v32h64v-32h176v32h64v-32h8h72v-22.888
				c4.024-1.408,7.944-3.024,11.72-4.824l16.16,16.16l56.568-56.568l-16.16-16.16c1.8-3.784,3.408-7.696,4.824-11.72H496z M16,16
				h304v48h-16V32h-16v32h-16V32h-16v32h-16V32h-16v32h-16V32h-16v32H16V16z M16,80h304v48h-16V96h-16v32h-16V96h-16v32h-16V96h-16
				v32h-16V96h-16v32H16V80z M16,144h304v48h-16v-32h-16v32h-16v-32h-16v32h-16v-32h-16v32h-16v-32h-16v32H16V144z M320,208v6.888
				c-4.024,1.408-7.944,3.024-11.72,4.824L296.568,208H320z M64,480H32v-16h32V480z M16,448V208h271.664l-52.12,52.12l16.16,16.16
				c-1.8,3.784-3.408,7.696-4.824,11.72H224v80h22.888c1.408,4.024,3.024,7.944,4.824,11.72l-16.16,16.16L287.664,448H16z M304,480
				h-32v-16h32V480z M320,448h-23.432l11.712-11.704c3.784,1.8,7.696,3.408,11.72,4.824V448z M461.824,395.88l-33.944,33.944
				l-13.168-13.168l-5.248,2.84c-6.136,3.328-12.784,6.056-19.752,8.136L384,429.336V448h-48v-18.664l-5.72-1.704
				c-6.968-2.072-13.616-4.808-19.752-8.136l-5.248-2.84l-13.168,13.168l-33.944-33.944l13.168-13.168l-2.84-5.248
				c-3.328-6.136-6.056-12.784-8.136-19.752L258.664,352H240v-48h18.664l1.704-5.72c2.072-6.968,4.808-13.616,8.136-19.752
				l2.84-5.248l-13.168-13.168l33.944-33.944l13.168,13.168l5.248-2.84c6.136-3.328,12.784-6.056,19.752-8.136l5.712-1.696V208h48
				v18.664l5.72,1.704c6.968,2.072,13.616,4.808,19.752,8.136l5.248,2.84l13.168-13.168l33.944,33.944l-13.168,13.168l2.84,5.248
				c3.328,6.136,6.056,12.784,8.136,19.752l1.696,5.712H480v48h-18.664l-1.704,5.72c-2.072,6.968-4.808,13.616-8.136,19.752
				l-2.84,5.248L461.824,395.88z"/>
			<path d="M360,256c-39.696,0-72,32.304-72,72s32.304,72,72,72s72-32.304,72-72S399.696,256,360,256z M415.36,336
				c-1.36,9.464-5.088,18.152-10.576,25.472l-10.848-10.848l-11.312,11.312l10.848,10.848c-7.32,5.488-16.008,9.216-25.472,10.576
				V368h-16v15.36c-9.464-1.36-18.152-5.088-25.472-10.576l10.848-10.848l-11.312-11.312l-10.848,10.848
				c-5.488-7.32-9.216-16.008-10.576-25.472H320v-16h-15.36c1.36-9.464,5.088-18.152,10.576-25.472l10.848,10.848l11.312-11.312
				l-10.848-10.848c7.32-5.488,16.008-9.208,25.472-10.576V288h16v-15.36c9.464,1.36,18.152,5.088,25.472,10.576l-10.848,10.848
				l11.312,11.312l10.848-10.848c5.488,7.32,9.208,16.008,10.576,25.472H400v16H415.36z"/>
		</g>
	</g>
</g>
</svg>