<?xml version="1.0" encoding="iso-8859-1"?>
<!-- Uploaded to: SVG Repo, www.svgrepo.com, Generator: SVG Repo Mixer Tools -->
<!DOCTYPE svg PUBLIC "-//W3C//DTD SVG 1.1//EN" "http://www.w3.org/Graphics/SVG/1.1/DTD/svg11.dtd">
<svg fill="#000000" height="800px" width="800px" version="1.1" id="Capa_1" xmlns="http://www.w3.org/2000/svg" xmlns:xlink="http://www.w3.org/1999/xlink" 
	 viewBox="0 0 195.175 195.175" xml:space="preserve">
<path d="M97.588,195.175c-38.598,0-70-31.402-70-70c0-38.115,30.622-69.213,68.556-69.985c-0.167-1.569-0.34-3.819-0.34-6.419
	l-4.608-6.181c-4.205,0.809-18.037,2.359-30.489-8.746C46.035,20.76,50.288,3.107,50.476,2.362L51.073,0l2.201,1.045
	c0.087,0.042,8.816,4.159,14,4.182c0.936,0.011,1.952-0.078,3.043-0.164c5.453-0.43,12.921-1.02,19.671,7.962
	c6.827,9.083,4.851,22.827,4.102,26.755l2.074,2.782c0.524-4.317,1.713-8.856,4.137-12.556c3.758-5.736,10.42-9.03,16.975-8.382
	c5.007,0.493,8.854,3.188,10.553,7.396c1.936,4.793,1.379,9.555-1.487,12.74c-2.543,2.825-6.491,3.899-10.308,2.808
	c-3.311-0.948-5.456-3.419-5.885-6.78c-0.455-3.557,1.147-7.386,3.726-8.908l2.033,3.445c-1.066,0.629-2.064,2.819-1.791,4.956
	c0.227,1.774,1.242,2.932,3.019,3.441c2.37,0.68,4.699,0.066,6.233-1.638c1.847-2.052,2.121-5.174,0.751-8.565
	c-1.123-2.78-3.76-4.571-7.235-4.913c-5.089-0.505-10.285,2.088-13.237,6.594c-4.723,7.208-3.949,18.788-3.469,23.025
	c37.403,1.367,67.411,32.222,67.411,69.953C167.588,163.773,136.186,195.175,97.588,195.175z M61.75,180.576
	c10.326,6.702,22.637,10.599,35.837,10.599c4.347,0,8.594-0.422,12.709-1.228c-1.737-0.816-3.496-1.923-4.908-3.414
	c-3.119-3.292-12.475-5.937-14.521-5.367c-2.262,2.832-8.027,3.51-14.603-0.79c-3.524-2.303-4.096-1.87-5.477-0.824
	c-0.368,0.279-0.752,0.567-1.178,0.838c-2.661,1.692-5.528,0.249-6.987-0.527C62.376,180.053,62.075,180.3,61.75,180.576z
	 M91.582,177.118c4.638,0,13.33,3.096,16.71,6.665c2.817,2.974,7.847,4.026,9.341,4.281c8.649-2.763,16.53-7.266,23.227-13.093
	c-1.201-1.113-3.774-2.533-8.692-1.618c-7.394,1.375-13.679-0.48-16.626-2.931c-1.73-1.438-2.094-2.844-2.094-3.77
	c0-2.68,2.13-4.279,4.009-5.69c2.107-1.583,3.001-2.402,2.727-3.612c-1.223-5.379,2.343-11.652,3.688-13.425
	c0.137-0.18,0.338-0.478,0.594-0.854c1.722-2.528,5.305-7.789,9.198-8.961c4.11-1.237,7.752,0.277,9.993,4.153
	c1.229,2.125,2.739,3.833,4.491,5.078c1.36,0.966,2.609,1.663,3.713,2.069c0.376,0.141,0.744-0.153,2.001-2.362
	c1.168-2.053,2.768-4.862,5.905-4.862c0.005,0,0.01,0,0.016,0l2.516,0.007c0.845-4.208,1.289-8.562,1.289-13.016
	c0-36.393-29.607-66-66-66c-15.931,0-30.559,5.672-41.975,15.104c5.194-0.06,12.426,0.332,15.804,2.729
	c2.987,2.121,7.389,3.377,10.021,1.673c4.305-2.786,15.539-4.032,20.704-1.444c1.398,0.7,2.364,1.551,3.14,2.234
	c1.584,1.396,2.632,2.317,7.613,1.297c4.852-1,9.959,1.299,12.706,5.709c2.839,4.56,2.451,9.971-1.039,14.475
	c-4.772,6.157-13.382,9.701-19.669,12.289c-2.656,1.093-5.165,2.125-5.995,2.845c-2.798,2.425-7.122,11.688-7.499,15.268
	c-0.117,1.114-0.073,2.933-0.027,4.859c0.12,5.01,0.269,11.246-1.877,14.884c-1.232,2.089-3.209,3.134-5.417,2.865
	c-3.608-0.438-6.786-4.104-7.773-7.395c-0.92-3.066-8.086-6.697-14.362-8.556c-2.197-0.651-4.873,0.006-7.457,0.641
	c-3.335,0.819-7.115,1.747-9.283-1.143c-0.208-0.277-0.611-0.748-0.973-0.784c-0.739-0.071-2,1.079-2.762,1.764l-0.449,0.401
	c-1.299,1.137-4.82,4.012-6.592,5.455c4.167,13.705,12.679,25.531,23.929,33.873c2.897-2.592,3.588-2.592,4.156-2.592
	c0.668,0,1.201,0.284,1.875,0.644c0.865,0.46,2.311,1.234,3.077,0.745c0.33-0.21,0.626-0.436,0.911-0.652
	c2.38-1.801,4.633-2.896,10.08,0.666c4.702,3.074,8.565,2.677,9.317,1.603c0.616-0.879,1.677-1.381,3.155-1.49
	C91.135,177.126,91.354,177.118,91.582,177.118z M135.187,169.053c4.433,0,7.113,1.708,8.61,3.203
	c8.312-8.158,14.477-18.489,17.568-30.067l-1.593-0.005c0,0-0.001,0-0.002,0c-0.813,0-1.673,1.509-2.431,2.841
	c-1.173,2.06-3.135,5.508-6.861,4.137c-1.436-0.529-2.999-1.391-4.646-2.562c-2.223-1.58-4.12-3.711-5.637-6.337
	c-1.741-3.012-3.902-2.769-5.377-2.325c-2.537,0.764-5.812,5.573-7.045,7.383c-0.307,0.45-0.55,0.804-0.713,1.02
	c-0.806,1.062-3.867,6.199-2.975,10.121c0.878,3.865-2.071,6.08-4.225,7.697c-1.13,0.849-2.411,1.811-2.411,2.492
	c0.349,1.221,5.878,4.278,13.989,2.768C132.808,169.165,134.055,169.053,135.187,169.053z M59.909,133.743
	c1.057,0,2.12,0.123,3.17,0.435c1.538,0.456,15.077,4.641,17.057,11.242c0.646,2.153,2.796,4.376,4.423,4.574
	c0.456,0.055,0.955-0.019,1.49-0.927c1.565-2.653,1.425-8.493,1.323-12.756c-0.051-2.148-0.096-4.003,0.048-5.374
	c0.477-4.532,5.224-14.723,8.857-17.871c1.323-1.147,3.743-2.144,7.092-3.522c5.871-2.417,13.911-5.726,18.029-11.04
	c3.491-4.505,1.727-8.431,0.806-9.91c-1.867-2.998-5.286-4.566-8.506-3.906c-6.432,1.32-8.642-0.085-11.06-2.213
	c-0.696-0.613-1.353-1.191-2.289-1.66c-3.798-1.904-13.509-0.865-16.739,1.226c-4.343,2.81-10.418,1.137-14.51-1.77
	c-2.93-2.081-12.328-2.216-18.098-1.805c-11.987,11.956-19.416,28.482-19.416,46.71c0,5.135,0.589,10.133,1.704,14.935
	c1.811-1.479,4.131-3.387,5.092-4.229l0.408-0.364c1.333-1.2,3.356-3.012,5.826-2.771c1.44,0.141,2.713,0.936,3.785,2.364
	c0.581,0.774,2.892,0.208,5.129-0.342C55.53,134.277,57.708,133.743,59.909,133.743z M53.955,5.715
	c-0.569,4.87-0.588,16.224,9.414,25.144c9.562,8.526,20.173,8.631,25.148,8.08c-2.549-3.6-7.642-10.311-13.322-15.128
	c-6.19-5.251-13.823-8.336-13.899-8.367l1.485-3.714c0.292,0.117,6.329,2.557,12.284,6.897l-0.083-2.329l3.997-0.142l0.208,5.838
	c4.746,4.318,8.897,9.542,11.513,13.117c0.514-5.304,0.471-13.854-3.909-19.683c-5.43-7.225-10.887-6.795-16.159-6.377
	c-1.177,0.093-2.291,0.18-3.376,0.176C62.994,9.208,57.182,7.061,53.955,5.715z"/>
</svg>